<mxfile host="app.diagrams.net" modified="2021-03-21T06:17:44.727Z" agent="5.0 (Windows NT 10.0; Win64; x64) AppleWebKit/537.36 (KHTML, like Gecko) Chrome/89.0.4389.90 Safari/537.36" etag="y_JopHVNN6SgRMaEC2Mw" version="14.4.9" type="github">
  <diagram id="R2lEEEUBdFMjLlhIrx00" name="Page-1">
    <mxGraphModel dx="2031" dy="1183" grid="1" gridSize="10" guides="1" tooltips="1" connect="1" arrows="1" fold="1" page="1" pageScale="1" pageWidth="2000" pageHeight="2000" math="0" shadow="0" extFonts="Permanent Marker^https://fonts.googleapis.com/css?family=Permanent+Marker">
      <root>
        <mxCell id="0" />
        <mxCell id="1" parent="0" />
        <mxCell id="BWCBT2D36AkRkxdC_NX2-1" value="고객" style="shape=table;startSize=30;container=1;collapsible=1;childLayout=tableLayout;fixedRows=1;rowLines=0;fontStyle=1;align=center;resizeLast=1;" vertex="1" parent="1">
          <mxGeometry x="410" y="120" width="180" height="280" as="geometry" />
        </mxCell>
        <mxCell id="BWCBT2D36AkRkxdC_NX2-2" value="" style="shape=partialRectangle;collapsible=0;dropTarget=0;pointerEvents=0;fillColor=none;top=0;left=0;bottom=1;right=0;points=[[0,0.5],[1,0.5]];portConstraint=eastwest;" vertex="1" parent="BWCBT2D36AkRkxdC_NX2-1">
          <mxGeometry y="30" width="180" height="30" as="geometry" />
        </mxCell>
        <mxCell id="BWCBT2D36AkRkxdC_NX2-3" value="PK" style="shape=partialRectangle;connectable=0;fillColor=none;top=0;left=0;bottom=0;right=0;fontStyle=1;overflow=hidden;" vertex="1" parent="BWCBT2D36AkRkxdC_NX2-2">
          <mxGeometry width="30" height="30" as="geometry" />
        </mxCell>
        <mxCell id="BWCBT2D36AkRkxdC_NX2-4" value="고객번호" style="shape=partialRectangle;connectable=0;fillColor=none;top=0;left=0;bottom=0;right=0;align=left;spacingLeft=6;fontStyle=5;overflow=hidden;" vertex="1" parent="BWCBT2D36AkRkxdC_NX2-2">
          <mxGeometry x="30" width="150" height="30" as="geometry" />
        </mxCell>
        <mxCell id="BWCBT2D36AkRkxdC_NX2-5" value="" style="shape=partialRectangle;collapsible=0;dropTarget=0;pointerEvents=0;fillColor=none;top=0;left=0;bottom=0;right=0;points=[[0,0.5],[1,0.5]];portConstraint=eastwest;" vertex="1" parent="BWCBT2D36AkRkxdC_NX2-1">
          <mxGeometry y="60" width="180" height="30" as="geometry" />
        </mxCell>
        <mxCell id="BWCBT2D36AkRkxdC_NX2-6" value="" style="shape=partialRectangle;connectable=0;fillColor=none;top=0;left=0;bottom=0;right=0;editable=1;overflow=hidden;" vertex="1" parent="BWCBT2D36AkRkxdC_NX2-5">
          <mxGeometry width="30" height="30" as="geometry" />
        </mxCell>
        <mxCell id="BWCBT2D36AkRkxdC_NX2-7" value="고객명" style="shape=partialRectangle;connectable=0;fillColor=none;top=0;left=0;bottom=0;right=0;align=left;spacingLeft=6;overflow=hidden;" vertex="1" parent="BWCBT2D36AkRkxdC_NX2-5">
          <mxGeometry x="30" width="150" height="30" as="geometry" />
        </mxCell>
        <mxCell id="BWCBT2D36AkRkxdC_NX2-8" value="" style="shape=partialRectangle;collapsible=0;dropTarget=0;pointerEvents=0;fillColor=none;top=0;left=0;bottom=0;right=0;points=[[0,0.5],[1,0.5]];portConstraint=eastwest;" vertex="1" parent="BWCBT2D36AkRkxdC_NX2-1">
          <mxGeometry y="90" width="180" height="30" as="geometry" />
        </mxCell>
        <mxCell id="BWCBT2D36AkRkxdC_NX2-9" value="" style="shape=partialRectangle;connectable=0;fillColor=none;top=0;left=0;bottom=0;right=0;editable=1;overflow=hidden;" vertex="1" parent="BWCBT2D36AkRkxdC_NX2-8">
          <mxGeometry width="30" height="30" as="geometry" />
        </mxCell>
        <mxCell id="BWCBT2D36AkRkxdC_NX2-10" value="고객주소" style="shape=partialRectangle;connectable=0;fillColor=none;top=0;left=0;bottom=0;right=0;align=left;spacingLeft=6;overflow=hidden;" vertex="1" parent="BWCBT2D36AkRkxdC_NX2-8">
          <mxGeometry x="30" width="150" height="30" as="geometry" />
        </mxCell>
        <mxCell id="BWCBT2D36AkRkxdC_NX2-11" value="" style="shape=partialRectangle;collapsible=0;dropTarget=0;pointerEvents=0;fillColor=none;top=0;left=0;bottom=0;right=0;points=[[0,0.5],[1,0.5]];portConstraint=eastwest;" vertex="1" parent="BWCBT2D36AkRkxdC_NX2-1">
          <mxGeometry y="120" width="180" height="30" as="geometry" />
        </mxCell>
        <mxCell id="BWCBT2D36AkRkxdC_NX2-12" value="" style="shape=partialRectangle;connectable=0;fillColor=none;top=0;left=0;bottom=0;right=0;editable=1;overflow=hidden;" vertex="1" parent="BWCBT2D36AkRkxdC_NX2-11">
          <mxGeometry width="30" height="30" as="geometry" />
        </mxCell>
        <mxCell id="BWCBT2D36AkRkxdC_NX2-13" value="고객전화번호" style="shape=partialRectangle;connectable=0;fillColor=none;top=0;left=0;bottom=0;right=0;align=left;spacingLeft=6;overflow=hidden;" vertex="1" parent="BWCBT2D36AkRkxdC_NX2-11">
          <mxGeometry x="30" width="150" height="30" as="geometry" />
        </mxCell>
        <mxCell id="BWCBT2D36AkRkxdC_NX2-23" style="shape=partialRectangle;collapsible=0;dropTarget=0;pointerEvents=0;fillColor=none;top=0;left=0;bottom=0;right=0;points=[[0,0.5],[1,0.5]];portConstraint=eastwest;" vertex="1" parent="BWCBT2D36AkRkxdC_NX2-1">
          <mxGeometry y="150" width="180" height="30" as="geometry" />
        </mxCell>
        <mxCell id="BWCBT2D36AkRkxdC_NX2-24" style="shape=partialRectangle;connectable=0;fillColor=none;top=0;left=0;bottom=0;right=0;editable=1;overflow=hidden;" vertex="1" parent="BWCBT2D36AkRkxdC_NX2-23">
          <mxGeometry width="30" height="30" as="geometry" />
        </mxCell>
        <mxCell id="BWCBT2D36AkRkxdC_NX2-25" value="고객이메일" style="shape=partialRectangle;connectable=0;fillColor=none;top=0;left=0;bottom=0;right=0;align=left;spacingLeft=6;overflow=hidden;" vertex="1" parent="BWCBT2D36AkRkxdC_NX2-23">
          <mxGeometry x="30" width="150" height="30" as="geometry" />
        </mxCell>
        <mxCell id="BWCBT2D36AkRkxdC_NX2-35" style="shape=partialRectangle;collapsible=0;dropTarget=0;pointerEvents=0;fillColor=none;top=0;left=0;bottom=0;right=0;points=[[0,0.5],[1,0.5]];portConstraint=eastwest;" vertex="1" parent="BWCBT2D36AkRkxdC_NX2-1">
          <mxGeometry y="180" width="180" height="30" as="geometry" />
        </mxCell>
        <mxCell id="BWCBT2D36AkRkxdC_NX2-36" style="shape=partialRectangle;connectable=0;fillColor=none;top=0;left=0;bottom=0;right=0;editable=1;overflow=hidden;" vertex="1" parent="BWCBT2D36AkRkxdC_NX2-35">
          <mxGeometry width="30" height="30" as="geometry" />
        </mxCell>
        <mxCell id="BWCBT2D36AkRkxdC_NX2-37" value="포인트" style="shape=partialRectangle;connectable=0;fillColor=none;top=0;left=0;bottom=0;right=0;align=left;spacingLeft=6;overflow=hidden;" vertex="1" parent="BWCBT2D36AkRkxdC_NX2-35">
          <mxGeometry x="30" width="150" height="30" as="geometry" />
        </mxCell>
        <mxCell id="BWCBT2D36AkRkxdC_NX2-32" style="shape=partialRectangle;collapsible=0;dropTarget=0;pointerEvents=0;fillColor=none;top=0;left=0;bottom=0;right=0;points=[[0,0.5],[1,0.5]];portConstraint=eastwest;" vertex="1" parent="BWCBT2D36AkRkxdC_NX2-1">
          <mxGeometry y="210" width="180" height="30" as="geometry" />
        </mxCell>
        <mxCell id="BWCBT2D36AkRkxdC_NX2-33" style="shape=partialRectangle;connectable=0;fillColor=none;top=0;left=0;bottom=0;right=0;editable=1;overflow=hidden;" vertex="1" parent="BWCBT2D36AkRkxdC_NX2-32">
          <mxGeometry width="30" height="30" as="geometry" />
        </mxCell>
        <mxCell id="BWCBT2D36AkRkxdC_NX2-34" value="사용신용카드코드(FK)" style="shape=partialRectangle;connectable=0;fillColor=none;top=0;left=0;bottom=0;right=0;align=left;spacingLeft=6;overflow=hidden;" vertex="1" parent="BWCBT2D36AkRkxdC_NX2-32">
          <mxGeometry x="30" width="150" height="30" as="geometry" />
        </mxCell>
        <mxCell id="BWCBT2D36AkRkxdC_NX2-29" style="shape=partialRectangle;collapsible=0;dropTarget=0;pointerEvents=0;fillColor=none;top=0;left=0;bottom=0;right=0;points=[[0,0.5],[1,0.5]];portConstraint=eastwest;" vertex="1" parent="BWCBT2D36AkRkxdC_NX2-1">
          <mxGeometry y="240" width="180" height="30" as="geometry" />
        </mxCell>
        <mxCell id="BWCBT2D36AkRkxdC_NX2-30" style="shape=partialRectangle;connectable=0;fillColor=none;top=0;left=0;bottom=0;right=0;editable=1;overflow=hidden;" vertex="1" parent="BWCBT2D36AkRkxdC_NX2-29">
          <mxGeometry width="30" height="30" as="geometry" />
        </mxCell>
        <mxCell id="BWCBT2D36AkRkxdC_NX2-31" value="배송지주소코드(FK)" style="shape=partialRectangle;connectable=0;fillColor=none;top=0;left=0;bottom=0;right=0;align=left;spacingLeft=6;overflow=hidden;" vertex="1" parent="BWCBT2D36AkRkxdC_NX2-29">
          <mxGeometry x="30" width="150" height="30" as="geometry" />
        </mxCell>
        <mxCell id="BWCBT2D36AkRkxdC_NX2-38" value="신용카드관리" style="shape=table;startSize=30;container=1;collapsible=1;childLayout=tableLayout;fixedRows=1;rowLines=0;fontStyle=1;align=center;resizeLast=1;" vertex="1" parent="1">
          <mxGeometry x="130" y="120" width="180" height="130" as="geometry" />
        </mxCell>
        <mxCell id="BWCBT2D36AkRkxdC_NX2-39" value="" style="shape=partialRectangle;collapsible=0;dropTarget=0;pointerEvents=0;fillColor=none;top=0;left=0;bottom=1;right=0;points=[[0,0.5],[1,0.5]];portConstraint=eastwest;" vertex="1" parent="BWCBT2D36AkRkxdC_NX2-38">
          <mxGeometry y="30" width="180" height="30" as="geometry" />
        </mxCell>
        <mxCell id="BWCBT2D36AkRkxdC_NX2-40" value="PK" style="shape=partialRectangle;connectable=0;fillColor=none;top=0;left=0;bottom=0;right=0;fontStyle=1;overflow=hidden;" vertex="1" parent="BWCBT2D36AkRkxdC_NX2-39">
          <mxGeometry width="30" height="30" as="geometry" />
        </mxCell>
        <mxCell id="BWCBT2D36AkRkxdC_NX2-41" value="사용신용카드코드" style="shape=partialRectangle;connectable=0;fillColor=none;top=0;left=0;bottom=0;right=0;align=left;spacingLeft=6;fontStyle=5;overflow=hidden;" vertex="1" parent="BWCBT2D36AkRkxdC_NX2-39">
          <mxGeometry x="30" width="150" height="30" as="geometry" />
        </mxCell>
        <mxCell id="BWCBT2D36AkRkxdC_NX2-42" value="" style="shape=partialRectangle;collapsible=0;dropTarget=0;pointerEvents=0;fillColor=none;top=0;left=0;bottom=0;right=0;points=[[0,0.5],[1,0.5]];portConstraint=eastwest;" vertex="1" parent="BWCBT2D36AkRkxdC_NX2-38">
          <mxGeometry y="60" width="180" height="30" as="geometry" />
        </mxCell>
        <mxCell id="BWCBT2D36AkRkxdC_NX2-43" value="" style="shape=partialRectangle;connectable=0;fillColor=none;top=0;left=0;bottom=0;right=0;editable=1;overflow=hidden;" vertex="1" parent="BWCBT2D36AkRkxdC_NX2-42">
          <mxGeometry width="30" height="30" as="geometry" />
        </mxCell>
        <mxCell id="BWCBT2D36AkRkxdC_NX2-44" value="신용카드종류" style="shape=partialRectangle;connectable=0;fillColor=none;top=0;left=0;bottom=0;right=0;align=left;spacingLeft=6;overflow=hidden;" vertex="1" parent="BWCBT2D36AkRkxdC_NX2-42">
          <mxGeometry x="30" width="150" height="30" as="geometry" />
        </mxCell>
        <mxCell id="BWCBT2D36AkRkxdC_NX2-45" value="" style="shape=partialRectangle;collapsible=0;dropTarget=0;pointerEvents=0;fillColor=none;top=0;left=0;bottom=0;right=0;points=[[0,0.5],[1,0.5]];portConstraint=eastwest;" vertex="1" parent="BWCBT2D36AkRkxdC_NX2-38">
          <mxGeometry y="90" width="180" height="30" as="geometry" />
        </mxCell>
        <mxCell id="BWCBT2D36AkRkxdC_NX2-46" value="" style="shape=partialRectangle;connectable=0;fillColor=none;top=0;left=0;bottom=0;right=0;editable=1;overflow=hidden;" vertex="1" parent="BWCBT2D36AkRkxdC_NX2-45">
          <mxGeometry width="30" height="30" as="geometry" />
        </mxCell>
        <mxCell id="BWCBT2D36AkRkxdC_NX2-47" value="신용카드번호" style="shape=partialRectangle;connectable=0;fillColor=none;top=0;left=0;bottom=0;right=0;align=left;spacingLeft=6;overflow=hidden;" vertex="1" parent="BWCBT2D36AkRkxdC_NX2-45">
          <mxGeometry x="30" width="150" height="30" as="geometry" />
        </mxCell>
        <mxCell id="BWCBT2D36AkRkxdC_NX2-52" value="배송지주소관리" style="shape=table;startSize=30;container=1;collapsible=1;childLayout=tableLayout;fixedRows=1;rowLines=0;fontStyle=1;align=center;resizeLast=1;" vertex="1" parent="1">
          <mxGeometry x="130" y="300" width="180" height="160" as="geometry" />
        </mxCell>
        <mxCell id="BWCBT2D36AkRkxdC_NX2-53" value="" style="shape=partialRectangle;collapsible=0;dropTarget=0;pointerEvents=0;fillColor=none;top=0;left=0;bottom=1;right=0;points=[[0,0.5],[1,0.5]];portConstraint=eastwest;" vertex="1" parent="BWCBT2D36AkRkxdC_NX2-52">
          <mxGeometry y="30" width="180" height="30" as="geometry" />
        </mxCell>
        <mxCell id="BWCBT2D36AkRkxdC_NX2-54" value="PK" style="shape=partialRectangle;connectable=0;fillColor=none;top=0;left=0;bottom=0;right=0;fontStyle=1;overflow=hidden;" vertex="1" parent="BWCBT2D36AkRkxdC_NX2-53">
          <mxGeometry width="30" height="30" as="geometry" />
        </mxCell>
        <mxCell id="BWCBT2D36AkRkxdC_NX2-55" value="배송지주소코드" style="shape=partialRectangle;connectable=0;fillColor=none;top=0;left=0;bottom=0;right=0;align=left;spacingLeft=6;fontStyle=5;overflow=hidden;" vertex="1" parent="BWCBT2D36AkRkxdC_NX2-53">
          <mxGeometry x="30" width="150" height="30" as="geometry" />
        </mxCell>
        <mxCell id="BWCBT2D36AkRkxdC_NX2-56" value="" style="shape=partialRectangle;collapsible=0;dropTarget=0;pointerEvents=0;fillColor=none;top=0;left=0;bottom=0;right=0;points=[[0,0.5],[1,0.5]];portConstraint=eastwest;" vertex="1" parent="BWCBT2D36AkRkxdC_NX2-52">
          <mxGeometry y="60" width="180" height="30" as="geometry" />
        </mxCell>
        <mxCell id="BWCBT2D36AkRkxdC_NX2-57" value="" style="shape=partialRectangle;connectable=0;fillColor=none;top=0;left=0;bottom=0;right=0;editable=1;overflow=hidden;" vertex="1" parent="BWCBT2D36AkRkxdC_NX2-56">
          <mxGeometry width="30" height="30" as="geometry" />
        </mxCell>
        <mxCell id="BWCBT2D36AkRkxdC_NX2-58" value="배송지주소1" style="shape=partialRectangle;connectable=0;fillColor=none;top=0;left=0;bottom=0;right=0;align=left;spacingLeft=6;overflow=hidden;" vertex="1" parent="BWCBT2D36AkRkxdC_NX2-56">
          <mxGeometry x="30" width="150" height="30" as="geometry" />
        </mxCell>
        <mxCell id="BWCBT2D36AkRkxdC_NX2-59" value="" style="shape=partialRectangle;collapsible=0;dropTarget=0;pointerEvents=0;fillColor=none;top=0;left=0;bottom=0;right=0;points=[[0,0.5],[1,0.5]];portConstraint=eastwest;" vertex="1" parent="BWCBT2D36AkRkxdC_NX2-52">
          <mxGeometry y="90" width="180" height="30" as="geometry" />
        </mxCell>
        <mxCell id="BWCBT2D36AkRkxdC_NX2-60" value="" style="shape=partialRectangle;connectable=0;fillColor=none;top=0;left=0;bottom=0;right=0;editable=1;overflow=hidden;" vertex="1" parent="BWCBT2D36AkRkxdC_NX2-59">
          <mxGeometry width="30" height="30" as="geometry" />
        </mxCell>
        <mxCell id="BWCBT2D36AkRkxdC_NX2-61" value="배송지주소2" style="shape=partialRectangle;connectable=0;fillColor=none;top=0;left=0;bottom=0;right=0;align=left;spacingLeft=6;overflow=hidden;" vertex="1" parent="BWCBT2D36AkRkxdC_NX2-59">
          <mxGeometry x="30" width="150" height="30" as="geometry" />
        </mxCell>
        <mxCell id="BWCBT2D36AkRkxdC_NX2-62" value="" style="shape=partialRectangle;collapsible=0;dropTarget=0;pointerEvents=0;fillColor=none;top=0;left=0;bottom=0;right=0;points=[[0,0.5],[1,0.5]];portConstraint=eastwest;" vertex="1" parent="BWCBT2D36AkRkxdC_NX2-52">
          <mxGeometry y="120" width="180" height="30" as="geometry" />
        </mxCell>
        <mxCell id="BWCBT2D36AkRkxdC_NX2-63" value="" style="shape=partialRectangle;connectable=0;fillColor=none;top=0;left=0;bottom=0;right=0;editable=1;overflow=hidden;" vertex="1" parent="BWCBT2D36AkRkxdC_NX2-62">
          <mxGeometry width="30" height="30" as="geometry" />
        </mxCell>
        <mxCell id="BWCBT2D36AkRkxdC_NX2-64" value="배송지주소3" style="shape=partialRectangle;connectable=0;fillColor=none;top=0;left=0;bottom=0;right=0;align=left;spacingLeft=6;overflow=hidden;" vertex="1" parent="BWCBT2D36AkRkxdC_NX2-62">
          <mxGeometry x="30" width="150" height="30" as="geometry" />
        </mxCell>
        <mxCell id="BWCBT2D36AkRkxdC_NX2-65" value="" style="edgeStyle=entityRelationEdgeStyle;fontSize=12;html=1;endArrow=ERzeroToOne;endFill=1;entryX=1;entryY=0.5;entryDx=0;entryDy=0;exitX=0;exitY=0.5;exitDx=0;exitDy=0;" edge="1" parent="1" source="BWCBT2D36AkRkxdC_NX2-5" target="BWCBT2D36AkRkxdC_NX2-53">
          <mxGeometry width="100" height="100" relative="1" as="geometry">
            <mxPoint x="340" y="530" as="sourcePoint" />
            <mxPoint x="440" y="430" as="targetPoint" />
          </mxGeometry>
        </mxCell>
        <mxCell id="BWCBT2D36AkRkxdC_NX2-66" value="" style="edgeStyle=entityRelationEdgeStyle;fontSize=12;html=1;endArrow=ERzeroToOne;endFill=1;entryX=1;entryY=0.5;entryDx=0;entryDy=0;exitX=0;exitY=0.5;exitDx=0;exitDy=0;" edge="1" parent="1" source="BWCBT2D36AkRkxdC_NX2-2" target="BWCBT2D36AkRkxdC_NX2-39">
          <mxGeometry width="100" height="100" relative="1" as="geometry">
            <mxPoint x="750" y="470" as="sourcePoint" />
            <mxPoint x="850" y="370" as="targetPoint" />
          </mxGeometry>
        </mxCell>
        <mxCell id="BWCBT2D36AkRkxdC_NX2-67" value="" style="shape=or;whiteSpace=wrap;html=1;rotation=-90;" vertex="1" parent="1">
          <mxGeometry x="510" y="420" width="60" height="80" as="geometry" />
        </mxCell>
        <mxCell id="BWCBT2D36AkRkxdC_NX2-68" value="개인고객" style="shape=table;startSize=30;container=1;collapsible=1;childLayout=tableLayout;fixedRows=1;rowLines=0;fontStyle=1;align=center;resizeLast=1;" vertex="1" parent="1">
          <mxGeometry x="580" y="560" width="180" height="100" as="geometry" />
        </mxCell>
        <mxCell id="BWCBT2D36AkRkxdC_NX2-69" value="" style="shape=partialRectangle;collapsible=0;dropTarget=0;pointerEvents=0;fillColor=none;top=0;left=0;bottom=1;right=0;points=[[0,0.5],[1,0.5]];portConstraint=eastwest;" vertex="1" parent="BWCBT2D36AkRkxdC_NX2-68">
          <mxGeometry y="30" width="180" height="30" as="geometry" />
        </mxCell>
        <mxCell id="BWCBT2D36AkRkxdC_NX2-70" value="PK" style="shape=partialRectangle;connectable=0;fillColor=none;top=0;left=0;bottom=0;right=0;fontStyle=1;overflow=hidden;" vertex="1" parent="BWCBT2D36AkRkxdC_NX2-69">
          <mxGeometry width="30" height="30" as="geometry" />
        </mxCell>
        <mxCell id="BWCBT2D36AkRkxdC_NX2-71" value="고객번호(FK)" style="shape=partialRectangle;connectable=0;fillColor=none;top=0;left=0;bottom=0;right=0;align=left;spacingLeft=6;fontStyle=5;overflow=hidden;" vertex="1" parent="BWCBT2D36AkRkxdC_NX2-69">
          <mxGeometry x="30" width="150" height="30" as="geometry" />
        </mxCell>
        <mxCell id="BWCBT2D36AkRkxdC_NX2-72" value="" style="shape=partialRectangle;collapsible=0;dropTarget=0;pointerEvents=0;fillColor=none;top=0;left=0;bottom=0;right=0;points=[[0,0.5],[1,0.5]];portConstraint=eastwest;" vertex="1" parent="BWCBT2D36AkRkxdC_NX2-68">
          <mxGeometry y="60" width="180" height="30" as="geometry" />
        </mxCell>
        <mxCell id="BWCBT2D36AkRkxdC_NX2-73" value="" style="shape=partialRectangle;connectable=0;fillColor=none;top=0;left=0;bottom=0;right=0;editable=1;overflow=hidden;" vertex="1" parent="BWCBT2D36AkRkxdC_NX2-72">
          <mxGeometry width="30" height="30" as="geometry" />
        </mxCell>
        <mxCell id="BWCBT2D36AkRkxdC_NX2-74" value="주민등록번호" style="shape=partialRectangle;connectable=0;fillColor=none;top=0;left=0;bottom=0;right=0;align=left;spacingLeft=6;overflow=hidden;" vertex="1" parent="BWCBT2D36AkRkxdC_NX2-72">
          <mxGeometry x="30" width="150" height="30" as="geometry" />
        </mxCell>
        <mxCell id="BWCBT2D36AkRkxdC_NX2-81" value="사업자 고객" style="shape=table;startSize=30;container=1;collapsible=1;childLayout=tableLayout;fixedRows=1;rowLines=0;fontStyle=1;align=center;resizeLast=1;" vertex="1" parent="1">
          <mxGeometry x="320" y="560" width="180" height="100" as="geometry" />
        </mxCell>
        <mxCell id="BWCBT2D36AkRkxdC_NX2-82" value="" style="shape=partialRectangle;collapsible=0;dropTarget=0;pointerEvents=0;fillColor=none;top=0;left=0;bottom=1;right=0;points=[[0,0.5],[1,0.5]];portConstraint=eastwest;" vertex="1" parent="BWCBT2D36AkRkxdC_NX2-81">
          <mxGeometry y="30" width="180" height="30" as="geometry" />
        </mxCell>
        <mxCell id="BWCBT2D36AkRkxdC_NX2-83" value="PK" style="shape=partialRectangle;connectable=0;fillColor=none;top=0;left=0;bottom=0;right=0;fontStyle=1;overflow=hidden;" vertex="1" parent="BWCBT2D36AkRkxdC_NX2-82">
          <mxGeometry width="30" height="30" as="geometry" />
        </mxCell>
        <mxCell id="BWCBT2D36AkRkxdC_NX2-84" value="고객번호(FK)" style="shape=partialRectangle;connectable=0;fillColor=none;top=0;left=0;bottom=0;right=0;align=left;spacingLeft=6;fontStyle=5;overflow=hidden;" vertex="1" parent="BWCBT2D36AkRkxdC_NX2-82">
          <mxGeometry x="30" width="150" height="30" as="geometry" />
        </mxCell>
        <mxCell id="BWCBT2D36AkRkxdC_NX2-85" value="" style="shape=partialRectangle;collapsible=0;dropTarget=0;pointerEvents=0;fillColor=none;top=0;left=0;bottom=0;right=0;points=[[0,0.5],[1,0.5]];portConstraint=eastwest;" vertex="1" parent="BWCBT2D36AkRkxdC_NX2-81">
          <mxGeometry y="60" width="180" height="30" as="geometry" />
        </mxCell>
        <mxCell id="BWCBT2D36AkRkxdC_NX2-86" value="" style="shape=partialRectangle;connectable=0;fillColor=none;top=0;left=0;bottom=0;right=0;editable=1;overflow=hidden;" vertex="1" parent="BWCBT2D36AkRkxdC_NX2-85">
          <mxGeometry width="30" height="30" as="geometry" />
        </mxCell>
        <mxCell id="BWCBT2D36AkRkxdC_NX2-87" value="사업자등록번호" style="shape=partialRectangle;connectable=0;fillColor=none;top=0;left=0;bottom=0;right=0;align=left;spacingLeft=6;overflow=hidden;" vertex="1" parent="BWCBT2D36AkRkxdC_NX2-85">
          <mxGeometry x="30" width="150" height="30" as="geometry" />
        </mxCell>
        <mxCell id="BWCBT2D36AkRkxdC_NX2-95" value="" style="edgeStyle=entityRelationEdgeStyle;fontSize=12;html=1;endArrow=ERmandOne;startArrow=ERmandOne;exitX=1;exitY=0.5;exitDx=0;exitDy=0;entryX=0;entryY=0.25;entryDx=0;entryDy=0;entryPerimeter=0;" edge="1" parent="1" source="BWCBT2D36AkRkxdC_NX2-82" target="BWCBT2D36AkRkxdC_NX2-67">
          <mxGeometry width="100" height="100" relative="1" as="geometry">
            <mxPoint x="670" y="450" as="sourcePoint" />
            <mxPoint x="770" y="350" as="targetPoint" />
          </mxGeometry>
        </mxCell>
        <mxCell id="BWCBT2D36AkRkxdC_NX2-96" value="" style="edgeStyle=entityRelationEdgeStyle;fontSize=12;html=1;endArrow=ERmandOne;startArrow=ERmandOne;exitX=1;exitY=0.5;exitDx=0;exitDy=0;exitPerimeter=0;entryX=0.542;entryY=0.995;entryDx=0;entryDy=0;entryPerimeter=0;" edge="1" parent="1" source="BWCBT2D36AkRkxdC_NX2-67" target="BWCBT2D36AkRkxdC_NX2-29">
          <mxGeometry width="100" height="100" relative="1" as="geometry">
            <mxPoint x="630" y="440" as="sourcePoint" />
            <mxPoint x="535" y="375" as="targetPoint" />
          </mxGeometry>
        </mxCell>
        <mxCell id="BWCBT2D36AkRkxdC_NX2-97" value="" style="edgeStyle=entityRelationEdgeStyle;fontSize=12;html=1;endArrow=ERmandOne;startArrow=ERmandOne;exitX=0;exitY=0.5;exitDx=0;exitDy=0;entryX=0;entryY=0.75;entryDx=0;entryDy=0;entryPerimeter=0;" edge="1" parent="1" source="BWCBT2D36AkRkxdC_NX2-69" target="BWCBT2D36AkRkxdC_NX2-67">
          <mxGeometry width="100" height="100" relative="1" as="geometry">
            <mxPoint x="670" y="450" as="sourcePoint" />
            <mxPoint x="770" y="350" as="targetPoint" />
          </mxGeometry>
        </mxCell>
      </root>
    </mxGraphModel>
  </diagram>
</mxfile>
